<?xml version="1.0" standalone="no"?>
<!DOCTYPE svg PUBLIC "-//W3C//DTD SVG 20010904//EN"
 "http://www.w3.org/TR/2001/REC-SVG-20010904/DTD/svg10.dtd">
<svg version="1.0" xmlns="http://www.w3.org/2000/svg"
 width="125.000000pt" height="104.000000pt" viewBox="0 0 125.000000 104.000000"
 preserveAspectRatio="xMidYMid meet">

<g transform="translate(0.000000,104.000000) scale(0.100000,-0.100000)"
fill="#000000" stroke="none">
<path d="M603 1030 c-12 -5 -30 -21 -39 -35 -18 -27 -18 -29 11 -97 7 -17 -7
-18 -204 -18 -248 0 -239 4 -236 -115 2 -76 7 -80 53 -44 31 24 47 24 72 -1
25 -25 26 -62 2 -83 -25 -22 -48 -21 -88 4 l-34 21 -1 -39 c-4 -211 1 -358 11
-355 6 1 24 12 39 23 34 25 77 13 87 -26 8 -34 0 -53 -31 -67 -21 -10 -32 -8
-65 11 -22 12 -40 19 -41 14 -6 -54 2 -158 13 -169 19 -19 457 -23 468 -4 7
11 11 11 25 0 13 -11 61 -13 228 -11 128 2 217 7 224 13 8 7 13 37 13 84 l0
75 -30 -16 c-67 -35 -133 -1 -111 57 17 45 65 50 109 13 l30 -25 4 193 c2 105
1 196 -3 201 -5 5 -19 2 -33 -8 -50 -32 -108 -12 -108 37 0 57 55 76 106 36
15 -12 29 -20 31 -17 11 10 7 169 -5 183 -10 12 -46 15 -216 15 -112 0 -204 4
-204 8 0 5 7 23 15 39 31 62 -29 128 -92 103z m56 -26 c24 -17 24 -20 5 -111
l-6 -33 216 0 216 0 0 -70 c0 -67 -1 -70 -19 -60 -54 28 -121 -7 -121 -64 0
-59 66 -95 121 -66 18 10 19 7 21 -50 0 -33 1 -65 2 -72 1 -7 -23 -13 -65 -15
l-66 -4 5 29 c3 23 -2 33 -19 46 -27 18 -60 21 -76 5 -8 -8 -9 2 -6 34 7 61
-12 144 -43 184 -14 19 -44 46 -66 61 -36 23 -51 27 -122 27 -65 0 -89 -5
-123 -23 -80 -42 -118 -120 -111 -231 l3 -68 -33 14 c-48 20 -87 0 -87 -45 l0
-33 -65 3 -65 3 -3 83 c-2 45 0 82 3 82 3 0 17 -7 30 -16 45 -30 115 5 115 57
0 41 -9 58 -42 75 -31 16 -62 12 -90 -14 -17 -14 -18 -11 -18 44 0 33 5 65 12
72 9 9 72 12 220 12 227 0 238 3 204 55 -21 33 -20 61 4 85 24 24 38 25 69 4z
m58 -189 c42 -18 70 -41 85 -70 7 -11 -1 -7 -18 11 -39 41 -91 57 -175 52
-100 -5 -150 -48 -174 -150 -11 -45 -13 -48 -14 -20 -1 40 22 98 52 131 52 56
167 78 244 46z m112 -135 c0 -10 -3 -8 -9 5 -12 27 -12 43 0 25 5 -8 9 -22 9
-30z m-101 -40 c22 -22 54 -43 71 -46 44 -9 57 -28 34 -51 -10 -10 -26 -31
-36 -45 -28 -45 -72 -61 -163 -61 -91 0 -151 21 -170 61 -6 12 -19 29 -29 36
-9 7 -15 21 -13 32 3 16 18 21 87 32 81 12 134 34 161 67 7 8 14 15 15 15 1 0
21 -18 43 -40z m109 -12 c-3 -8 -6 -5 -6 6 -1 11 2 17 5 13 3 -3 4 -12 1 -19z
m98 -112 c16 -12 17 -18 8 -39 -7 -14 -9 -28 -6 -31 4 -3 42 -6 85 -6 l79 0
-3 -80 c-2 -44 -6 -80 -9 -80 -4 0 -12 7 -19 15 -18 21 -63 19 -94 -6 -33 -26
-36 -79 -5 -110 21 -21 69 -23 109 -6 12 6 15 -2 15 -40 0 -27 -4 -54 -8 -61
-6 -9 -55 -12 -188 -12 l-179 0 0 40 c0 24 5 42 13 44 6 3 23 7 37 10 52 12
55 20 32 74 -27 62 -21 106 18 128 15 9 35 32 45 50 16 30 17 37 4 60 -12 24
-12 28 10 45 28 23 32 23 56 5z m-551 -18 c8 -13 8 -23 -2 -39 -18 -29 -8 -51
42 -88 56 -42 66 -82 36 -141 -25 -49 -18 -64 41 -82 37 -10 39 -14 39 -50 l0
-38 -183 0 c-129 0 -187 4 -195 12 -13 13 -17 128 -4 128 4 0 16 -7 26 -15 47
-35 116 2 116 61 0 66 -69 103 -121 65 l-29 -22 0 76 0 75 78 0 c43 0 82 3 85
6 3 4 2 15 -4 26 -6 11 -8 26 -5 34 8 21 66 14 80 -8z m56 -5 c0 -10 -10 -31
-21 -48 -12 -16 -18 -21 -14 -10 4 11 10 32 13 48 5 30 22 37 22 10z m94 -100
c-19 -37 -18 -45 7 -77 16 -20 19 -30 10 -39 -16 -16 -61 30 -61 63 0 27 33
80 50 80 5 0 2 -12 -6 -27z m76 17 c0 -5 -6 -10 -14 -10 -8 0 -18 5 -21 10 -3
6 3 10 14 10 12 0 21 -4 21 -10z m75 0 c-3 -5 -10 -10 -16 -10 -5 0 -9 5 -9
10 0 6 7 10 16 10 8 0 12 -4 9 -10z m65 -12 c28 -30 26 -79 -3 -107 -20 -18
-26 -19 -35 -8 -9 11 -7 18 9 33 20 18 22 46 4 87 -10 23 0 22 25 -5z m-59 -8
c14 8 19 5 24 -20 5 -24 2 -34 -17 -50 -12 -11 -31 -19 -40 -20 -10 0 -18 -5
-18 -11 0 -8 -5 -7 -16 2 -9 7 -23 14 -32 15 -8 2 -24 11 -34 22 -15 15 -17
23 -9 46 9 22 14 25 30 17 13 -7 24 -6 37 3 16 12 22 12 38 0 13 -9 25 -10 37
-4z m-81 -125 c0 -8 -9 -15 -20 -15 -20 0 -26 11 -13 23 12 13 33 7 33 -8z
m83 0 c-4 -15 -36 -12 -41 3 -3 9 3 13 19 10 13 -1 23 -7 22 -13z m-104 -35
c9 0 22 5 29 12 9 9 15 9 24 0 18 -18 42 -15 83 9 20 12 37 20 38 18 2 -2 10
-21 20 -42 l17 -38 -28 -10 c-67 -27 -302 -18 -302 11 0 4 7 24 15 45 l16 36
35 -20 c19 -12 43 -21 53 -21z m19 -117 c-2 -20 -9 -29 -25 -31 -20 -3 -23 1
-23 27 0 27 4 31 26 31 22 0 25 -4 22 -27z m92 -3 c0 -23 -4 -30 -20 -30 -16
0 -20 7 -20 30 0 23 4 30 20 30 16 0 20 -7 20 -30z"/>
<path d="M530 571 c0 -12 6 -21 16 -21 9 0 14 7 12 17 -5 25 -28 28 -28 4z"/>
<path d="M704 579 c-10 -17 13 -36 27 -22 12 12 4 33 -11 33 -5 0 -12 -5 -16
-11z"/>
<path d="M649 503 c-13 -16 -12 -17 4 -4 16 13 21 21 13 21 -2 0 -10 -8 -17
-17z"/>
</g>
</svg>
